<?xml version="1.0" standalone="no"?>
<!DOCTYPE svg PUBLIC "-//W3C//DTD SVG 20010904//EN"
 "http://www.w3.org/TR/2001/REC-SVG-20010904/DTD/svg10.dtd">
<svg version="1.0" xmlns="http://www.w3.org/2000/svg"
 width="512.000000pt" height="512.000000pt" viewBox="0 0 512.000000 512.000000"
 preserveAspectRatio="xMidYMid meet">
<metadata>
Created by potrace 1.14, written by Peter Selinger 2001-2017
</metadata>
<g transform="translate(0.000000,512.000000) scale(0.100000,-0.100000)"
fill="#000000" stroke="none">
<path d="M105 4802 c-122 -41 -138 -214 -25 -272 37 -19 58 -20 444 -20 l406
0 5 -22 c3 -13 19 -86 36 -163 17 -77 32 -147 34 -155 2 -8 11 -49 20 -90 9
-41 18 -82 20 -90 2 -8 20 -89 40 -180 20 -91 39 -174 41 -185 3 -11 9 -38 14
-60 4 -22 11 -50 13 -61 5 -18 40 -179 52 -234 22 -101 99 -449 110 -495 8
-33 22 -94 30 -135 9 -41 18 -82 20 -90 2 -8 19 -87 39 -175 20 -88 40 -178
46 -200 16 -66 14 -72 -27 -80 -168 -31 -322 -201 -343 -377 -24 -208 93 -405
284 -477 76 -28 86 -29 321 -31 146 -1 199 -5 173 -11 -80 -19 -165 -66 -223
-125 -217 -218 -155 -588 120 -715 80 -37 135 -48 219 -44 247 12 433 215 421
463 -6 124 -44 212 -129 298 -60 60 -116 92 -201 116 -57 16 -14 17 945 17
883 0 999 -2 953 -14 -208 -56 -344 -236 -338 -447 8 -255 210 -444 463 -434
150 6 280 79 358 201 114 179 89 414 -61 561 -65 63 -127 98 -202 116 -58 13
-57 13 107 18 145 4 168 7 192 25 40 30 61 74 61 125 0 58 -25 102 -73 129
l-38 21 -1474 0 -1475 0 -33 22 c-54 37 -72 70 -72 127 0 55 29 107 75 133 17
10 334 14 1497 18 l1475 5 32 23 c18 13 39 37 47 55 8 18 149 498 312 1067
319 1113 322 1127 278 1187 -11 15 -36 36 -55 45 -32 17 -143 18 -1885 18
l-1850 0 -43 193 c-63 283 -70 309 -94 344 -43 63 -37 62 -564 62 -263 -1
-487 -4 -498 -7z"/>
</g>
</svg>
